<?xml version="1.0" encoding="utf-8"?>
<!-- Generator: Adobe Illustrator 25.0.1, SVG Export Plug-In . SVG Version: 6.00 Build 0)  -->
<svg version="1.1" id="Layer_1" xmlns="http://www.w3.org/2000/svg" xmlns:xlink="http://www.w3.org/1999/xlink" x="0px" y="0px"
	 viewBox="0 0 1080 1080" style="enable-background:new 0 0 1080 1080;" xml:space="preserve">
<style type="text/css">
	.st0{fill:#0A2735;}
</style>
<g>
	<path class="st0" d="M895.69,186.52C800.57,92.09,674.11,40.08,539.59,40.08s-260.98,52.01-356.1,146.45
		c-95.11,94.44-147.5,220-147.5,353.55s52.38,259.12,147.5,353.55c95.12,94.44,221.58,146.45,356.1,146.45
		c116.62,0,230.32-40.5,320.14-114.02c6.29-5.15,7.18-14.38,2-20.63c-5.19-6.24-14.48-7.13-20.77-1.99
		c-84.56,69.22-191.59,107.34-301.37,107.34c-126.63,0-245.69-48.96-335.23-137.87C114.81,784.01,65.5,665.81,65.5,540.08
		s49.31-243.93,138.86-332.84c89.54-88.9,208.6-137.86,335.23-137.86s245.69,48.96,335.23,137.86
		c89.55,88.9,138.86,207.11,138.86,332.84c0,114.97-42.22,225.68-118.91,311.73c-5.4,6.06-4.83,15.32,1.27,20.68
		c6.11,5.36,15.42,4.79,20.83-1.27c81.46-91.42,126.32-209.02,126.32-331.14C1043.19,406.52,990.81,280.96,895.69,186.52z"/>
	<path class="st0" d="M633,867.95c7.28,1.5,15.93-4.1,17.45-11.36c3.2-15.29,7.22-29.75,11.74-43.28
		c48.9,19.66,107.03,7.52,142.58-31.52c76.78-84.3,68.38-239.9,67.99-246.48c-0.38-6.27-4.74-11.6-10.84-13.26
		c-1.44-0.39-19.91-5.21-49.09-5.04c10.37-59.73-3.92-121.02-51.39-161.84c-48.31-41.54-118.98-50.11-175.85-21.31
		c-23.93,12.12-44.37,30.15-59.37,52.05c-38.44-56.04-111.11-81.99-176.64-62.65c-18.28,5.4-9.88,33.48,8.41,28.08
		c61.16-18.07,128.65,12.73,154.77,70.45c5.07,11.19,21.82,11.26,26.91,0c12.06-26.62,33.12-48.58,59.31-61.84
		c46.28-23.44,103.8-16.46,143.12,17.36c41.74,35.9,50.85,89.87,40.33,141.62c-21.96,2.63-47.29,8.31-74.53,19.37
		c-52.93,21.48-97.22,63.17-115.6,108.81c-12.95,32.17-13.08,65.36-0.48,96.31c-22.38,13.16-46.04,24.03-65.76,32.54
		C425.8,728.98,316.7,657.48,278.08,548.82c-11.77-32.73-25.78-95.8,12.71-150.52c10.92-15.53-13.27-32.31-24.19-16.77
		c-34.12,48.52-39.92,111.4-16.34,177.05c40.9,118.78,160.12,196.13,269.32,246.72c4,1.77,8.02,1.83,12.05,0.19
		c21.41-9.11,48.42-21.19,74.3-36.32c8.25,11.6,18.39,21.65,29.95,29.83c-5.53,15.96-10.47,33.2-14.32,51.62
		C619.9,858.54,625.03,866.3,633,867.95z M620.75,736.14c-11.41-25.22-11.76-51.52-1.03-78.15
		c33.27-82.64,140.11-121.64,223.9-109.62c0.79,71.28-10.54,158.66-60.73,213.77c-27.77,30.48-72.41,39.33-110.38,23.69
		c23.69-56.95,53-91.66,53.57-92.32c5.29-6.14,4.57-15.39-1.62-20.65c-6.19-5.26-15.5-4.54-20.8,1.6
		c-1.74,2.02-31.74,37.28-56.76,95.95C635.83,761.19,626.83,749.58,620.75,736.14z"/>
</g>
</svg>
