<?xml version="1.0" encoding="utf-8"?>
<!-- Generator: Adobe Illustrator 25.0.1, SVG Export Plug-In . SVG Version: 6.00 Build 0)  -->
<svg version="1.1" id="Layer_1" xmlns="http://www.w3.org/2000/svg" xmlns:xlink="http://www.w3.org/1999/xlink" x="0px" y="0px"
	 viewBox="0 0 1080 1080" style="enable-background:new 0 0 1080 1080;" xml:space="preserve">
<style type="text/css">
	.st0{fill:#0A2735;}
</style>
<g>
	<path class="st0" d="M890.67,211.91C796.89,124.25,672.21,75.97,539.59,75.97c-132.62,0-257.3,48.28-351.08,135.93
		C94.74,299.56,43.09,416.11,43.09,540.08s51.65,240.51,145.42,328.17c93.78,87.66,218.46,135.93,351.08,135.93
		c70.78,0,139.16-13.64,203.23-40.55c61.88-25.98,116.61-62.95,162.66-109.87c12.71-12.95-8.72-31.34-21.44-18.39
		c-43.37,44.19-94.9,78.99-153.15,103.45c-60.29,25.32-124.66,38.16-191.3,38.16c-119.99,0-233.05-42-320.04-118.52l132.24-123.62
		c15.01,11.48,31.25,21.61,48.5,30.19v36.86c0,27.49,23.93,49.86,53.33,49.86h171.93c29.41,0,53.33-22.36,53.33-49.86v-36.86
		c45.36-22.59,83.74-55.81,111.37-96.53c30.08-44.32,45.98-95.61,45.98-148.34c0-64.71-23.62-126.13-67-175.55L880.2,240.91
		c81.87,81.31,126.8,187,126.8,299.16c0,85.77-26.6,168.82-76.93,240.16c-10.35,14.68,13.94,29.65,24.29,14.97
		c53.47-75.8,81.73-164.03,81.73-255.14C1036.09,416.11,984.44,299.56,890.67,211.91L890.67,211.91z M765.7,653.95
		c-26.4,38.9-63.68,70.23-107.79,90.6c-4.96,2.29-8.1,7.02-8.1,12.19v45.17c0,12.49-10.87,22.66-24.24,22.66h-11.13v-61.77
		c0-17.58-29.09-17.58-29.09,0v61.77h-31.2v-61.77c0-17.58-29.09-17.58-29.09,0v61.77h-31.2v-61.77c0-17.58-29.09-17.58-29.09,0
		v61.77h-11.13c-13.37,0-24.24-10.17-24.24-22.66v-45.17c0-5.18-3.14-9.9-8.11-12.19c-44.74-20.65-82.37-52.52-108.84-92.15
		c-27.21-40.75-41.17-87.84-40.37-136.17c0.93-56.62,22.92-111.89,61.9-155.62c12.03-13.51-10.32-30.92-22.35-17.41
		c-43.22,48.5-67.6,109.8-68.64,172.61c-0.89,53.58,14.6,105.79,44.78,150.99c12.13,18.16,26.37,34.85,42.42,49.8l-131.2,122.64
		c-81.86-81.31-126.79-187-126.79-299.16c0-116.7,48.62-226.42,136.9-308.94c88.28-82.52,205.66-127.97,330.5-127.97
		c119.98,0,233.06,42,320.04,118.52L749.7,324.45c-55.1-51.69-128.36-80.64-206.41-81.54c-1.23-0.01-2.45-0.02-3.68-0.02
		c-60.39,0-118.54,17.01-168.39,49.3c-15.46,10.01,1.11,32.36,16.57,22.35c44.95-29.12,97.38-44.45,151.83-44.45
		c1.1,0,2.21,0.01,3.31,0.02c70.76,0.81,137.16,27.18,186.95,74.26c49.83,47.12,77.27,109.56,77.27,175.82
		C807.15,567.74,792.82,614,765.7,653.95L765.7,653.95z"/>
	<path class="st0" d="M490.28,510.76c-17.87-16.7-42.61-25.44-67.92-23.93c-44.05,2.6-79.36,35.61-82.14,76.78
		c-3.3,48.76,41.45,90.51,93.52,87.42c44.05-2.6,79.36-35.61,82.14-76.78C517.47,550.6,508.14,527.46,490.28,510.76L490.28,510.76z
		 M486.84,572.54c-1.86,27.54-25.48,49.62-54.94,51.36c-35.04,2.04-64.87-25.79-62.65-58.57c1.86-27.54,25.48-49.62,54.94-51.36
		C459.32,511.91,489.05,539.85,486.84,572.54z"/>
	<path class="st0" d="M645.45,486.83c-44.05,2.6-79.36,35.61-82.14,76.78c-1.6,23.65,7.73,46.79,25.6,63.49
		c17.64,16.49,43.04,25.41,67.92,23.93c44.05-2.6,79.36-35.61,82.14-76.78C742.26,525.58,697.55,483.73,645.45,486.83L645.45,486.83
		z M709.94,572.53c-1.86,27.54-25.48,49.62-54.95,51.36c-16.99,0.99-33.56-4.84-45.52-16.02s-18.21-26.69-17.13-42.55
		c1.93-28.55,28.11-51.47,58.69-51.47C684.78,513.86,712.05,541.25,709.94,572.53L709.94,572.53z"/>
	<path class="st0" d="M508.62,674.08c-18.72,0-18.75,27.19,0,27.19C527.34,701.27,527.37,674.08,508.62,674.08z"/>
	<path class="st0" d="M570.56,674.08c-18.72,0-18.75,27.19,0,27.19C589.28,701.27,589.31,674.08,570.56,674.08z"/>
</g>
</svg>
