<?xml version="1.0" encoding="utf-8"?>
<!-- Generator: Adobe Illustrator 25.0.1, SVG Export Plug-In . SVG Version: 6.00 Build 0)  -->
<svg version="1.1" id="Layer_1" xmlns="http://www.w3.org/2000/svg" xmlns:xlink="http://www.w3.org/1999/xlink" x="0px" y="0px"
	 viewBox="0 0 1080 1080" style="enable-background:new 0 0 1080 1080;" xml:space="preserve">
<style type="text/css">
	.st0{fill:#0A2735;}
</style>
<g>
	<path class="st0" d="M871.04,191.03c-6.04-5.01-15.28-4.49-20.64,1.15c-5.36,5.64-4.81,14.28,1.23,19.29
		c100.49,83.35,158.12,203.09,158.12,328.53c0,117.29-48.86,227.56-137.59,310.49C783.44,933.43,665.48,979.1,540,979.1
		s-243.44-45.68-332.16-128.61C119.11,767.56,70.25,657.29,70.25,540s48.86-227.56,137.59-310.49
		C296.56,146.57,414.52,100.9,540,100.9c89.4,0,176.37,23.58,251.5,68.19c6.82,4.05,15.85,2.17,20.18-4.21
		c4.33-6.37,2.32-14.82-4.5-18.86C727.35,98.62,634.96,73.57,540,73.57c-133.28,0-258.59,48.52-352.84,136.61
		C92.92,298.28,41.01,415.41,41.01,540s51.9,241.72,146.15,329.82c94.25,88.1,219.55,136.61,352.84,136.61
		c133.28,0,258.59-48.52,352.84-136.61S1038.99,664.59,1038.99,540C1038.99,406.76,977.77,279.56,871.04,191.03L871.04,191.03z"/>
	<path class="st0" d="M782.6,751.84h-26.74V646.96c5.35-4.39,8.72-10.82,8.72-17.98c0-13.2-11.49-23.94-25.61-23.94h-53.4
		l-8.25-123.33c-0.27-4.02-3.84-7.15-8.15-7.15h-34.9c-4.31,0-7.88,3.13-8.15,7.15l-8.25,123.33h-19.56l-8.25-123.33
		c-0.27-4.02-3.84-7.15-8.15-7.15h-34.9c-4.31,0-7.88,3.13-8.15,7.15l-8.25,123.33h-19.56l-8.25-123.33
		c-0.27-4.02-3.84-7.15-8.15-7.15h-34.9c-4.31,0-7.88,3.13-8.15,7.15l-8.25,123.33h-22.74l-5.06-212.73
		c-0.1-4.15-3.72-7.46-8.16-7.46H355.1c-4.44,0-8.06,3.31-8.16,7.46l-5.83,245.35h-64.53c-14.12,0-25.61,10.74-25.61,23.94
		c0,7.16,3.38,13.59,8.72,17.98v72.26h-18.01c-4.51,0-8.16,3.42-8.16,7.63c0,4.21,3.65,7.62,8.16,7.62H782.6
		c4.51,0,8.16-3.42,8.16-7.62C790.76,755.26,787.11,751.84,782.6,751.84z M340.33,670.29h-28.85c-4.51,0-8.16,3.42-8.16,7.63
		c0,4.21,3.65,7.63,8.16,7.63h28.49l-1.58,66.29h-62.37v-66.31c0.19,0,0.37,0.01,0.56,0.01c4.51,0,8.16-3.42,8.16-7.63
		c0-4.21-3.65-7.63-8.16-7.63c-5.12,0-9.29-3.89-9.29-8.68c0-4.79,4.17-8.68,9.29-8.68h64.16L340.33,670.29z M641.95,489.82h19.56
		l7.7,115.22h-34.97L641.95,489.82z M554.7,489.82h19.56l7.7,115.22H547L554.7,489.82z M467.46,489.82h19.56l7.7,115.22h-34.97
		L467.46,489.82z M373.11,751.84h-18.39l8.36-351.73h36.38l4.87,204.93H390c-14.12,0-25.61,10.74-25.61,23.94
		c0,7.16,3.38,13.59,8.73,17.98V751.84z M738.97,637.66h-17.45c-4.5,0-8.16,3.42-8.16,7.63c0,4.21,3.66,7.63,8.16,7.63h17.45
		c0.19,0,0.38-0.01,0.56-0.01v98.93H389.43v-98.93c0.19,0,0.37,0.01,0.56,0.01h296.64c4.51,0,8.16-3.42,8.16-7.63
		c0-4.21-3.65-7.63-8.16-7.63H389.99c-5.12,0-9.29-3.89-9.29-8.68c0-4.79,4.17-8.68,9.29-8.68h348.98c5.12,0,9.29,3.89,9.29,8.68
		C748.26,633.77,744.1,637.66,738.97,637.66z"/>
	<path class="st0" d="M686.63,246.21c-24.59,0-48.03,8.02-66.77,22.72c-13.45-9.44-29.76-14.57-46.64-14.57
		c-20.5,0-40.06,7.56-54.61,20.94c-7.54-3.04-15.69-4.63-23.91-4.63c-24.27,0-45.9,13.58-55.4,33.91
		c-3.28-0.86-6.63-1.29-10.04-1.29c-16.86,0-31.36,10.25-36.54,24.61c-0.9-0.09-1.81-0.14-2.72-0.14
		c-14.12,0-25.61,10.74-25.61,23.94c0,4.22,3.66,7.63,8.16,7.63c4.51,0,8.16-3.42,8.16-7.63c0-4.79,4.17-8.68,9.29-8.68
		c1.62,0,3.21,0.43,4.72,1.27c2.45,1.37,5.48,1.44,8,0.2c2.52-1.24,4.17-3.63,4.34-6.29c0.71-11.02,10.47-19.65,22.2-19.65
		c3.71,0,7.37,0.94,10.88,2.79c2.2,1.16,4.85,1.3,7.18,0.38c2.33-0.92,4.07-2.79,4.72-5.08c5.13-18.08,22.67-30.71,42.65-30.71
		c7.57,0,15.08,1.85,21.7,5.35c3.39,1.79,7.65,1.1,10.2-1.65c11.75-12.72,28.74-20.01,46.62-20.01c15.29,0,29.98,5.33,41.38,15.02
		c3.18,2.7,8.06,2.64,11.15-0.15c16.48-14.85,38.1-23.02,60.88-23.02c48.42,0,87.81,36.82,87.81,82.08s-39.39,82.08-87.81,82.08
		c-32.15,0-61.7-16.41-77.12-42.82c-2.06-3.52-6.68-4.95-10.58-3.27c-8.19,3.53-16.84,5.31-25.72,5.31
		c-17.88,0-34.87-7.29-46.62-20.01c-2.54-2.75-6.81-3.44-10.2-1.65c-6.62,3.5-14.13,5.35-21.7,5.35c-13.79,0-26.56-5.9-35.02-16.2
		c-1.54-1.87-3.91-2.97-6.43-2.98c-0.01,0-0.03,0-0.04,0c-2.51,0-4.88,1.08-6.42,2.92c-4.32,5.15-10.7,8.1-17.52,8.1
		c-4.51,0-8.16,3.42-8.16,7.63s3.65,7.63,8.16,7.63c8.65,0,16.88-2.7,23.58-7.6c11.2,10.1,26.03,15.76,41.85,15.76
		c8.22,0,16.37-1.59,23.91-4.63c14.54,13.37,34.11,20.94,54.61,20.94c8.8,0,17.41-1.38,25.69-4.11
		c19.07,27.85,52.05,44.89,87.73,44.89c57.42,0,104.13-43.67,104.13-97.34S744.05,246.21,686.63,246.21z"/>
	<path class="st0" d="M442.34,670.28c-4.51,0-8.16,3.42-8.16,7.63v16.31c0,4.21,3.65,7.63,8.16,7.63c4.51,0,8.16-3.42,8.16-7.63
		v-16.31C450.5,673.7,446.85,670.28,442.34,670.28z"/>
	<path class="st0" d="M477.24,670.28c-4.51,0-8.16,3.42-8.16,7.63v16.31c0,4.21,3.65,7.63,8.16,7.63c4.51,0,8.16-3.42,8.16-7.63
		v-16.31C485.4,673.7,481.75,670.28,477.24,670.28z"/>
	<path class="st0" d="M512.14,670.28c-4.51,0-8.16,3.42-8.16,7.63v16.31c0,4.21,3.65,7.63,8.16,7.63c4.51,0,8.16-3.42,8.16-7.63
		v-16.31C520.3,673.7,516.65,670.28,512.14,670.28z"/>
	<path class="st0" d="M547.04,670.28c-4.51,0-8.16,3.42-8.16,7.63v16.31c0,4.21,3.65,7.63,8.16,7.63s8.16-3.42,8.16-7.63v-16.31
		C555.2,673.7,551.54,670.28,547.04,670.28z"/>
	<path class="st0" d="M581.93,670.28c-4.51,0-8.16,3.42-8.16,7.63v16.31c0,4.21,3.65,7.63,8.16,7.63c4.51,0,8.16-3.42,8.16-7.63
		v-16.31C590.1,673.7,586.44,670.28,581.93,670.28z"/>
	<path class="st0" d="M616.83,670.28c-4.51,0-8.16,3.42-8.16,7.63v16.31c0,4.21,3.65,7.63,8.16,7.63s8.16-3.42,8.16-7.63v-16.31
		C624.99,673.7,621.34,670.28,616.83,670.28z"/>
	<path class="st0" d="M651.73,670.28c-4.51,0-8.16,3.42-8.16,7.63v16.31c0,4.21,3.65,7.63,8.16,7.63c4.51,0,8.16-3.42,8.16-7.63
		v-16.31C659.89,673.7,656.24,670.28,651.73,670.28z"/>
	<path class="st0" d="M686.63,670.28c-4.51,0-8.16,3.42-8.16,7.63v16.31c0,4.21,3.65,7.63,8.16,7.63c4.51,0,8.16-3.42,8.16-7.63
		v-16.31C694.79,673.7,691.14,670.28,686.63,670.28z"/>
	<g>
		<path class="st0" d="M735.1,574.4c-2.4,0-4.79-1.02-6.46-3c-3.01-3.56-2.55-8.89,1.01-11.9l242.96-204.85
			c3.56-3,8.89-2.56,11.9,1.01c3.01,3.56,2.55,8.89-1.01,11.9L740.54,572.41C738.96,573.75,737.02,574.4,735.1,574.4z"/>
	</g>
	<g>
		<path class="st0" d="M224.31,895.11c-2.52,0-5.01-1.12-6.67-3.26c-2.86-3.68-2.2-8.99,1.48-11.85l120.89-94.02
			c3.68-2.86,8.99-2.2,11.85,1.48c2.86,3.68,2.2,8.99-1.48,11.85l-120.89,94.02C227.95,894.53,226.12,895.11,224.31,895.11z"/>
	</g>
</g>
</svg>
