<?xml version="1.0" encoding="utf-8"?>
<!-- Generator: Adobe Illustrator 25.0.1, SVG Export Plug-In . SVG Version: 6.00 Build 0)  -->
<svg version="1.1" id="Layer_1" xmlns="http://www.w3.org/2000/svg" xmlns:xlink="http://www.w3.org/1999/xlink" x="0px" y="0px"
	 viewBox="0 0 1080 1080" style="enable-background:new 0 0 1080 1080;" xml:space="preserve">
<style type="text/css">
	.st0{fill:#0A2735;}
</style>
<g>
	<path class="st0" d="M882.27,197.4C790.73,105.87,669.04,55.46,539.59,55.46S288.45,105.87,196.91,197.4
		C105.38,288.93,54.97,410.63,54.97,540.08c0,82.33,21.05,163.69,60.89,235.28c3.81,6.85,12.46,9.32,19.31,5.5
		c6.85-3.81,9.32-12.45,5.5-19.31c-37.49-67.37-57.3-143.96-57.3-221.47c0-121.86,47.45-236.43,133.62-322.6
		S417.73,83.86,539.59,83.86c121.86,0,236.43,47.45,322.59,133.62c86.17,86.17,133.63,200.74,133.63,322.6
		s-47.46,236.43-133.63,322.59C776.02,948.84,661.45,996.3,539.59,996.3c-140.64,0-271.3-63.43-358.48-174.02
		c-4.85-6.16-13.78-7.22-19.94-2.36c-6.16,4.85-7.21,13.79-2.36,19.94c92.6,117.46,231.39,184.83,380.78,184.83
		c129.45,0,251.14-50.41,342.68-141.94s141.94-213.23,141.94-342.68S973.8,288.93,882.27,197.4z"/>
	<path class="st0" d="M823.72,287.35c-71.08-26.87-144.86-32.11-207.73-14.74c-54.09,14.93-99.94,50.35-125.8,97.19
		c-24.45,44.29-28.47,93.23-10.73,130.92c11.01,23.41,29.25,42.64,51.31,55.84c-0.2,4.95-0.32,10.02-0.32,15.26v115.31
		c-7.46-11.56-16.06-22.62-25.51-32.96c8.63-21.63,9.9-45.65,3.01-68.41c-8.44-27.86-26.97-49.8-53.6-63.47
		c-35.7-18.32-85.06-20.44-128.84-5.53c-69.88,23.8-101.16,69.81-102.46,71.76c-2.71,4.07-3.14,9.25-1.13,13.7
		c2.01,4.46,6.17,7.57,11.01,8.24c31.05,4.28,47.3,23.99,66.11,46.83c21.78,26.42,46.46,56.38,97.13,62.45
		c4.09,0.49,8.16,0.73,12.22,0.73c30.26,0,59.2-13.44,79.19-37.27c0.83-0.99,1.6-2.02,2.39-3.03c17.87,21.16,31.61,45.23,38.29,69.5
		c0.46,1.68,1.23,3.19,2.19,4.53v86.9c0,7.84,6.36,14.2,14.2,14.2c7.84,0,14.2-6.35,14.2-14.2V571.81c0-0.82,0.01-1.62,0.02-2.43
		c13.45,4.4,27.64,6.75,42.02,6.75c3.84,0,7.69-0.17,11.54-0.51c53.88-4.77,99.35-42.83,121.62-101.81
		c1.94-5.15,3.85-10.71,5.82-16.99c2.35-7.48-1.82-15.45-9.3-17.8c-7.48-2.35-15.45,1.82-17.8,9.3c-1.81,5.76-3.54,10.82-5.29,15.46
		c-18.33,48.53-54.8,79.76-97.56,83.55c-16.89,1.5-33.95-1.43-49.52-7.83c9.41-94.02,58.52-120.66,61.01-121.96
		c6.96-3.5,9.81-11.96,6.36-18.96c-3.47-7.03-11.97-9.93-19.01-6.46c-2.8,1.38-60.6,31.09-75.06,131.82
		c-12.11-9.55-22.08-21.56-28.55-35.32c-13.87-29.47-10.17-68.76,9.9-105.1c22.19-40.19,61.74-70.63,108.5-83.54
		c50.14-13.84,108.28-11.72,166.04,5.75c-19.78,17.38-35.42,36.7-46.65,57.65c-3.7,6.91-1.11,15.52,5.81,19.22
		c2.14,1.14,4.43,1.69,6.7,1.69c5.06,0,9.96-2.72,12.52-7.49c12.86-23.99,32.73-45.7,59.05-64.52c5.01-3.37,7.43-9.38,6.1-14.96
		C831.36,290,824.15,287.49,823.72,287.35z M399.55,691.54c-39.38-4.72-58.43-27.84-78.6-52.32c-15.66-19-32.97-40.01-60.44-50.78
		c13.69-13.44,37.88-32.46,74.15-44.81c36.74-12.52,77.63-11.01,106.71,3.91c19.89,10.21,33.15,25.83,39.39,46.44
		c3.8,12.55,4.16,25.63,1.36,38.1c-29.64-25.39-64.44-43.56-98.57-49.1c-7.75-1.25-15.03,4-16.29,11.74
		c-1.26,7.74,4,15.03,11.74,16.29c31.32,5.08,63.95,23.33,91.05,48.35c-1.33,1.9-2.72,3.78-4.23,5.58
		C449.1,684.89,424.93,694.58,399.55,691.54z"/>
</g>
</svg>
