<?xml version="1.0" encoding="utf-8"?>
<!-- Generator: Adobe Illustrator 25.0.1, SVG Export Plug-In . SVG Version: 6.00 Build 0)  -->
<svg version="1.1" id="Layer_1" xmlns="http://www.w3.org/2000/svg" xmlns:xlink="http://www.w3.org/1999/xlink" x="0px" y="0px"
	 viewBox="0 0 1080 1080" style="enable-background:new 0 0 1080 1080;" xml:space="preserve">
<style type="text/css">
	.st0{fill:#0A2735;}
</style>
<g>
	<path class="st0" d="M872.15,165.03c-6.07-5.38-15.35-4.83-20.74,1.24c-5.38,6.07-4.83,15.35,1.24,20.73
		c100.95,89.58,158.85,218.27,158.85,353.07c0,126.05-49.09,244.56-138.22,333.69c-89.13,89.13-207.64,138.22-333.69,138.22
		S295.03,962.9,205.9,873.76C116.77,784.64,67.68,666.13,67.68,540.08s49.09-244.56,138.22-333.69S413.54,68.17,539.59,68.17
		c89.81,0,177.18,25.34,252.66,73.28c6.85,4.35,15.92,2.33,20.27-4.52c4.35-6.85,2.32-15.92-4.53-20.27
		C727.8,65.72,634.99,38.79,539.59,38.79c-133.9,0-259.78,52.14-354.46,146.82C90.45,280.3,38.31,406.18,38.31,540.08
		s52.14,259.78,146.82,354.46c94.68,94.68,220.56,146.82,354.46,146.82s259.78-52.14,354.46-146.82s146.82-220.56,146.82-354.46
		C1040.87,396.88,979.38,260.18,872.15,165.03z"/>
	<path class="st0" d="M675.68,525.73c10.17-10.17,15.77-23.69,15.77-38.08v-92.31c0-17.12-8.25-33.38-22.08-43.48l-58.32-42.61
		v-20.28c18.13-5.66,31.33-22.6,31.33-42.57v-23.2c0-24.59-20-44.59-44.59-44.59H481.38c-24.59,0-44.59,20-44.59,44.59v23.2
		c0,19.97,13.2,36.92,31.33,42.57v20.28l-58.32,42.61c-13.82,10.1-22.08,26.35-22.08,43.48v92.31c0,14.38,5.6,27.91,15.77,38.08
		l23.39,23.39v60.3l-22.74,21.98c-10.44,10.09-16.42,24.2-16.42,38.72v50.37c0,8.11,6.58,14.69,14.69,14.69
		c8.11,0,14.69-6.58,14.69-14.69v-50.37c0-6.6,2.72-13.01,7.47-17.6l27.22-26.31c2.86-2.77,4.48-6.58,4.48-10.56v-72.62
		c0-3.89-1.55-7.63-4.3-10.38l-27.69-27.69c-4.62-4.62-7.17-10.77-7.17-17.31v-92.31c0-7.78,3.75-15.17,10.04-19.76l64.34-47.01
		c3.79-2.76,6.02-7.17,6.02-11.86v-25.72h84.2v25.72c0,4.69,2.24,9.09,6.02,11.86l64.34,47.01c6.28,4.59,10.03,11.98,10.03,19.76
		v92.31c0,6.54-2.55,12.68-7.17,17.31l-23.39,23.39H503.69c-18.99,0-18.99,29.37,0,29.37h119.23v43.24h-45.47
		c-18.99,0-18.99,29.37,0,29.37h54.22l22.95,22.19c4.74,4.59,7.46,11,7.46,17.6v177.57c0,13.49-10.98,24.47-24.48,24.47H441.57
		c-13.5,0-24.48-10.98-24.48-24.47V798.7c0-8.11-6.58-14.69-14.69-14.69c-8.11,0-14.69,6.58-14.69,14.69v48.99
		c0,29.69,24.16,53.85,53.85,53.85h196.03c29.69,0,53.85-24.16,53.85-53.85V670.12c0-14.52-5.99-28.63-16.42-38.71l-22.74-21.98
		v-60.3L675.68,525.73z M482.8,261.62h-1.43c-8.39,0-15.22-6.83-15.22-15.22v-23.2c0-8.39,6.83-15.22,15.22-15.22H597.8
		c8.39,0,15.22,6.83,15.22,15.22v23.2c0,8.39-6.83,15.22-15.22,15.22h-1.42L482.8,261.62L482.8,261.62z"/>
	<path class="st0" d="M741.24,473.35v140.04c0,8.11,6.57,14.69,14.69,14.69h59.01c18.98,0,18.98-29.37,0-29.37h-44.32v-40.65h39.97
		c18.98,0,18.98-29.37,0-29.37h-39.97v-40.65h44.32c18.98,0,18.98-29.37,0-29.37h-59.01C747.81,458.67,741.24,465.24,741.24,473.35z
		"/>
	<path class="st0" d="M930.91,486.71c18.99,0,18.99-29.37,0-29.37h-59.01c-8.11,0-14.68,6.58-14.68,14.69v140.04
		c0,8.11,6.58,14.69,14.68,14.69h59.01c18.99,0,18.99-29.37,0-29.37H886.6v-40.64h39.97c18.99,0,18.99-29.37,0-29.37H886.6v-40.64
		L930.91,486.71L930.91,486.71z"/>
	<path class="st0" d="M205.12,485.78c18.99,0,18.99-29.37,0-29.37h-56.86c-8.11,0-14.69,6.58-14.69,14.69v140.29
		c0,18.99,29.37,18.99,29.37,0V554.6h37.66c18.99,0,18.99-29.37,0-29.37h-37.66v-39.44H205.12z"/>
	<path class="st0" d="M345.1,505.98c0-28.35-24-51.41-53.49-51.41h-37.56c-0.01,0-0.02,0-0.02,0s-0.02,0-0.02,0
		c-8.11,0-14.69,6.58-14.69,14.69v141.33c0,18.99,29.37,18.99,29.37,0v-47.9l50.7,57.6c12.72,14.46,34.48-5.29,22.05-19.41
		l-39.17-44.51C326.67,551.6,345.1,530.82,345.1,505.98z M291.6,528.02c-5.24,0-14.63,0.04-22.69,0.08
		c-0.08-14.72-0.09-29.44-0.13-44.17h22.82c13.08,0,24.12,10.09,24.12,22.04C315.73,517.92,304.68,528.02,291.6,528.02z"/>
</g>
</svg>
