<?xml version="1.0" encoding="utf-8"?>
<!-- Generator: Adobe Illustrator 25.0.1, SVG Export Plug-In . SVG Version: 6.00 Build 0)  -->
<svg version="1.1" id="Capa_1" xmlns="http://www.w3.org/2000/svg" xmlns:xlink="http://www.w3.org/1999/xlink" x="0px" y="0px"
	 viewBox="0 0 1080 1080" style="enable-background:new 0 0 1080 1080;" xml:space="preserve">
<g>
	<path d="M974.7,51.4H105.3c-29.8,0-53.9,24.1-53.9,53.9v869.3c0,29.8,24.2,54,53.9,54h468V650.2H446V502.7h127.3V393.9
		c0-126.2,77.1-195,189.7-195c54,0,100.3,4,113.8,5.8v131.9l-78.1,0c-61.2,0-73,29.1-73,71.8v94.2h146.1l-19.1,147.5h-127v378.5h249
		c29.8,0,54-24.2,54-53.9V105.3C1028.6,75.5,1004.5,51.4,974.7,51.4z"/>
</g>
</svg>
